<?xml version="1.0" encoding="iso-8859-1"?>
<!-- Generator: Adobe Illustrator 24.0.0, SVG Export Plug-In . SVG Version: 6.00 Build 0)  -->
<svg version="1.1" id="Layer_1" xmlns="http://www.w3.org/2000/svg" xmlns:xlink="http://www.w3.org/1999/xlink" x="0px" y="0px"
	 viewBox="0 0 300 100" style="enable-background:new 0 0 300 100;" xml:space="preserve">
<g>
	<g>
		<g>
			<path d="M15.438,26.732c0,0-6.449-6.995,2.457,0c8.899,6.997,14.121,11.14,14.121,11.14L83.58,11.716L69.152,24.791
				l31.306,43.893L82.656,56.509l-50.64,26.025l14.727-14.885L15.438,26.732z"/>
			<path d="M15.438,35.022c0,0-6.449-6.994,2.457,0c8.899,6.994,14.121,11.135,14.121,11.135L83.58,20.002L69.152,33.077
				l31.306,43.894L82.656,64.799l-50.64,26.023l14.727-14.885L15.438,35.022z"/>
			<path d="M96.571,26.813l-17.167,8.772c0,0-5.83-2.526-11.028-1.06c-5.198,1.461-12.762,5.781-13.306,6.443
				c-0.557,0.668-1.347,3.457,3.069,1.461c4.407-1.993,6.747-2.521,6.905-2.521c0.156,0,1.783,0.131-1.472,1.324
				c-3.253,1.197-18.851,7.32-19.531,8.022c-0.686,0.707-1.945,3.723,3.624,2.257c0,0,11.079-4.96,11.498-4.648
				c0.417,0.312,2.833,0.223-3.887,3.139c-6.723,2.927-10.763,4.301-11.188,4.878c0,0-2.911,3.788,3.417,2.769
				c2.179-1.154,13.465-6.446,13.78-6.607c0.314-0.151,2.101-0.592,0.891,0.672c-1.206,1.262-11.417,6.29-12.101,7.307
				c-0.683,1.019-0.415,3.476,3.731,2.155c0,0,10.002-5.763,10.395-5.986c0.392-0.221,2.892-0.887,0.864,0.891
				c-2.018,1.768-8.03,5.069-8.501,5.728c-0.479,0.668-0.925,2.857,3.882,1.374c4.807-1.482,13.207-3.408,25.18-13.64
				c2.122-1.73,0.048-3.214,20.475-11.054L96.571,26.813z"/>
		</g>
		<path style="fill:#E26636;" d="M15.291,25.742c0,0-6.448-6.995,2.456,0c8.902,6.992,14.123,11.137,14.123,11.137l51.561-26.154
			L69.007,23.798l31.306,43.894l-17.798-12.17L31.868,81.541L46.6,66.655L15.291,25.742z"/>
		<path style="fill:#C22030;" d="M15.291,34.029c0,0-6.448-6.995,2.456,0c8.902,6.994,14.123,11.132,14.123,11.132l51.561-26.152
			l-14.423,13.08l31.306,43.889l-17.801-12.17L31.868,89.83L46.6,74.941L15.291,34.029z"/>
		<path style="fill:#9EB656;" d="M96.425,25.826l-17.167,8.772c0,0-5.833-2.531-11.028-1.066
			c-5.201,1.461-12.762,5.781-13.309,6.448c-0.552,0.668-1.339,3.452,3.069,1.46c4.406-1.993,6.747-2.523,6.905-2.523
			c0.156,0,1.786,0.132-1.467,1.329c-3.258,1.194-18.85,7.31-19.534,8.017c-0.683,0.711-1.947,3.721,3.623,2.26
			c0,0,11.081-4.96,11.501-4.651c0.419,0.309,2.835,0.221-3.888,3.148c-6.721,2.922-10.759,4.291-11.186,4.869
			c0,0-2.908,3.79,3.419,2.766c2.179-1.146,13.47-6.443,13.784-6.602c0.312-0.148,2.098-0.598,0.891,0.67
			c-1.205,1.262-11.422,6.289-12.104,7.306c-0.681,1.022-0.417,3.482,3.731,2.152c0,0,10.002-5.757,10.397-5.983
			c0.395-0.218,2.882-0.885,0.866,0.887c-2.021,1.773-8.035,5.076-8.507,5.739c-0.473,0.667-0.92,2.857,3.885,1.372
			c4.807-1.48,13.204-3.409,25.181-13.645c2.125-1.724,0.049-3.21,20.476-11.054L96.425,25.826z"/>
	</g>
	<g>
		<g>
			<g>
				<g>
					<path style="fill:#93A248;" d="M110.03,46.514l15.226-32.785h13.803l-4.57,32.785h-8.982l0.901-6.895h-4.17l-3.225,6.895
						H110.03z M127.562,35.021l2.389-13.33l-5.832,13.33H127.562z"/>
					<polygon style="fill:#93A248;" points="152.008,13.729 162.397,13.729 158.559,26.305 162.3,26.305 166.15,13.729 
						176.543,13.729 166.527,46.514 156.121,46.514 160.881,30.938 157.143,30.938 152.387,46.514 141.979,46.514 					"/>
					<polygon style="fill:#93A248;" points="185.762,18.402 187.178,13.777 206.264,13.777 204.795,18.547 187.74,41.887 
						198.013,41.887 196.596,46.514 176.088,46.514 177.517,41.835 194.653,18.402 					"/>
				</g>
				<g>
					<path style="fill:#E26636;" d="M110.758,71.047l8.843-19.353h8.015l-2.652,19.353h-5.216l0.524-4.075h-2.426l-1.87,4.075
						H110.758z M120.942,64.261l1.388-7.863l-3.387,7.863H120.942z"/>
					<path style="fill:#E26636;" d="M147.843,55.351l-0.95,3.156h-5.895l0.845-2.801c0.142-0.473,0.18-0.796,0.107-0.965
						c-0.078-0.169-0.363-0.251-0.859-0.251c-0.718,0-1.186,0.36-1.407,1.089l-0.548,1.83c-0.135,0.452-0.18,0.799-0.127,1.044
						c0.051,0.244,0.285,0.447,0.707,0.613c2.079,0.81,3.473,1.372,4.167,1.681c0.703,0.312,1.179,0.675,1.445,1.079
						c0.258,0.406,0.272,0.985,0.045,1.746l-1.307,4.344c-0.371,1.232-1.098,2.077-2.179,2.543c-1.079,0.473-2.87,0.7-5.353,0.7
						c-2.521,0-4.297-0.204-5.338-0.621c-1.038-0.417-1.391-1.203-1.038-2.357l1.517-5.052h5.892l-1.389,4.617
						c-0.142,0.476,0.142,0.724,0.856,0.724c0.653,0,1.043-0.232,1.181-0.7l0.918-3.042c0.186-0.626,0.279-1.074,0.269-1.348
						c-0.013-0.269-0.158-0.524-0.444-0.761c-0.291-0.244-0.764-0.493-1.428-0.764c-0.654-0.277-1.62-0.645-2.881-1.111
						c-1.351-0.517-1.872-1.273-1.576-2.26l1.17-3.887c0.385-1.272,1.23-2.068,2.543-2.381c1.307-0.309,3.19-0.468,5.639-0.468
						c1.552,0,2.768,0.097,3.638,0.296c0.877,0.194,1.467,0.548,1.77,1.066C148.128,53.63,148.136,54.373,147.843,55.351"/>
					<path style="fill:#E26636;" d="M167.027,55.351l-0.952,3.156h-5.892l0.844-2.801c0.14-0.473,0.177-0.796,0.103-0.965
						c-0.073-0.169-0.364-0.251-0.864-0.251c-0.711,0-1.181,0.36-1.399,1.089l-0.546,1.83c-0.138,0.452-0.181,0.799-0.132,1.044
						c0.054,0.244,0.286,0.447,0.705,0.613c2.088,0.81,3.479,1.372,4.175,1.681c0.696,0.312,1.176,0.675,1.439,1.079
						c0.253,0.406,0.274,0.985,0.046,1.746l-1.312,4.344c-0.368,1.232-1.093,2.077-2.176,2.543c-1.084,0.473-2.87,0.7-5.353,0.7
						c-2.518,0-4.299-0.204-5.337-0.621c-1.044-0.417-1.393-1.203-1.041-2.357l1.517-5.052h5.895l-1.389,4.617
						c-0.145,0.476,0.134,0.724,0.855,0.724c0.649,0,1.044-0.232,1.183-0.7l0.914-3.042c0.186-0.626,0.277-1.074,0.266-1.348
						c-0.008-0.269-0.158-0.524-0.444-0.761c-0.285-0.244-0.764-0.493-1.421-0.764c-0.656-0.277-1.627-0.645-2.887-1.111
						c-1.345-0.517-1.87-1.273-1.571-2.26l1.168-3.887c0.387-1.272,1.232-2.068,2.542-2.381c1.308-0.309,3.191-0.468,5.644-0.468
						c1.549,0,2.763,0.097,3.642,0.296c0.872,0.194,1.467,0.548,1.765,1.066C167.315,53.63,167.316,54.373,167.027,55.351"/>
					<path style="fill:#E26636;" d="M168.701,67.56l3.672-12.213c0.24-0.789,0.53-1.445,0.877-1.961
						c0.347-0.509,0.939-0.939,1.768-1.278c0.834-0.328,2.026-0.503,3.557-0.503h3.677c1.483,0,2.551,0.159,3.196,0.468
						c0.653,0.304,1.012,0.721,1.076,1.248c0.067,0.519-0.022,1.208-0.275,2.053l-3.673,12.186
						c-0.275,0.928-0.624,1.641-1.043,2.147c-0.419,0.506-1.065,0.88-1.932,1.133c-0.867,0.25-2.068,0.374-3.603,0.374h-3.895
						C169.099,71.215,167.966,69.997,168.701,67.56 M176.688,67.56l3.691-12.268c0.21-0.699-0.04-1.044-0.759-1.044
						c-0.68,0-1.122,0.326-1.319,0.988l-3.728,12.385c-0.086,0.293-0.095,0.506-0.024,0.651c0.075,0.151,0.333,0.223,0.781,0.223
						c0.452,0,0.762-0.073,0.944-0.223C176.449,68.127,176.589,67.893,176.688,67.56"/>
					<path style="fill:#E26636;" d="M195.025,71.075h-2.879c-1.264,0-2.255-0.115-2.973-0.341c-0.716-0.223-1.173-0.568-1.378-1.025
						c-0.205-0.458-0.194-1.066,0.03-1.819l3.783-12.571c0.28-0.923,0.67-1.652,1.167-2.163c0.501-0.532,1.257-0.91,2.273-1.154
						c1.017-0.239,2.424-0.366,4.226-0.366h2.502c1.799,0,2.997,0.309,3.589,0.923c0.587,0.613,0.689,1.565,0.307,2.847
						l-0.941,3.104h-5.867l0.909-3.015c0.129-0.425,0.151-0.721,0.07-0.89c-0.084-0.166-0.336-0.245-0.753-0.245
						c-0.863,0-1.41,0.368-1.625,1.106l-3.602,11.956c-0.1,0.333-0.083,0.567,0.033,0.715c0.126,0.146,0.403,0.22,0.836,0.22
						c0.415,0,0.702-0.073,0.853-0.212c0.148-0.148,0.277-0.38,0.379-0.723l1.356-4.52h5.897l-1.603,5.326
						c-0.288,0.96-0.945,1.684-1.961,2.147C198.632,70.841,197.093,71.075,195.025,71.075"/>
					<polygon style="fill:#E26636;" points="212.156,51.695 218.196,51.695 212.377,71.047 206.334,71.047 					"/>
					<path style="fill:#E26636;" d="M216.722,71.047l8.846-19.353h8.014l-2.652,19.353h-5.224l0.527-4.075h-2.422l-1.87,4.075
						H216.722z M226.904,64.261l1.393-7.863l-3.385,7.863H226.904z"/>
					<polygon style="fill:#E26636;" points="239.196,54.542 240.054,51.695 251.788,51.695 250.931,54.542 248.012,54.542 
						243.045,71.047 237.154,71.047 242.117,54.542 					"/>
					<polygon style="fill:#E26636;" points="256.154,51.722 265.789,51.722 264.968,54.461 261.226,54.461 259.806,59.174 
						263.547,59.174 262.725,61.91 258.984,61.91 257.056,68.313 260.803,68.313 259.978,71.047 250.344,71.047 					"/>
					<path style="fill:#E26636;" d="M283.929,55.351l-0.949,3.156h-5.897l0.847-2.801c0.143-0.473,0.178-0.796,0.102-0.965
						c-0.07-0.169-0.358-0.251-0.859-0.251c-0.715,0-1.181,0.36-1.399,1.089l-0.555,1.83c-0.134,0.455-0.178,0.801-0.13,1.044
						c0.054,0.248,0.291,0.449,0.705,0.613c2.09,0.81,3.481,1.372,4.176,1.681c0.696,0.312,1.173,0.675,1.44,1.079
						c0.258,0.406,0.272,0.985,0.045,1.746l-1.311,4.344c-0.365,1.232-1.092,2.077-2.174,2.543c-1.082,0.473-2.865,0.7-5.348,0.7
						c-2.523,0-4.301-0.204-5.34-0.621c-1.046-0.417-1.396-1.203-1.046-2.357l1.523-5.052h5.891l-1.391,4.617
						c-0.148,0.476,0.143,0.724,0.855,0.724c0.651,0,1.047-0.232,1.184-0.7l0.92-3.042c0.186-0.626,0.271-1.074,0.259-1.348
						c-0.003-0.269-0.158-0.524-0.442-0.761c-0.287-0.244-0.762-0.493-1.418-0.764c-0.662-0.277-1.627-0.645-2.889-1.111
						c-1.348-0.517-1.87-1.273-1.577-2.26l1.17-3.887c0.385-1.272,1.232-2.068,2.545-2.381c1.308-0.309,3.188-0.468,5.644-0.468
						c1.549,0,2.76,0.097,3.635,0.296c0.874,0.194,1.466,0.548,1.77,1.066C284.217,53.63,284.224,54.373,283.929,55.351"/>
				</g>
			</g>
		</g>
	</g>
	<g>
		<polygon points="79.175,81.573 76.623,81.573 76.88,80.362 83.483,80.362 83.24,81.573 80.652,81.573 79.345,88.213 
			77.857,88.213 		"/>
		<path d="M82.165,88.213l0.672-3.39c0.159-0.839,0.244-1.77,0.306-2.282h1.305c-0.049,0.419-0.097,0.839-0.159,1.257h0.037
			c0.415-0.78,1.098-1.397,1.99-1.397c0.11,0,0.244,0.011,0.353,0.011l-0.293,1.375c-0.086-0.011-0.183-0.011-0.306-0.011
			c-1.111,0-1.757,1.014-2.002,2.317l-0.427,2.12H82.165z"/>
		<path d="M93.235,82.541l-0.793,3.96c-0.134,0.653-0.22,1.222-0.293,1.713h-1.331l0.159-1.049h-0.024
			c-0.622,0.769-1.44,1.187-2.246,1.187c-0.902,0-1.697-0.407-1.697-1.735c0-0.28,0.037-0.594,0.11-0.99l0.622-3.086h1.477
			l-0.586,2.994c-0.06,0.267-0.097,0.548-0.097,0.758c0,0.513,0.22,0.896,0.866,0.896c0.719,0,1.574-0.793,1.83-2.074l0.513-2.574
			H93.235z"/>
		<path d="M94.004,86.884c0.353,0.175,1.025,0.419,1.6,0.419c0.598,0,0.952-0.315,0.952-0.675c0-0.326-0.196-0.548-0.842-0.839
			c-0.756-0.326-1.318-0.815-1.318-1.503c0-1.13,1.074-1.888,2.526-1.888c0.683,0,1.245,0.151,1.526,0.315l-0.379,1.014
			c-0.256-0.116-0.696-0.28-1.257-0.28c-0.536,0-0.915,0.256-0.915,0.629c0,0.302,0.28,0.524,0.855,0.78
			c0.683,0.302,1.354,0.745,1.354,1.538c0,1.257-1.16,1.956-2.661,1.956c-0.756,0-1.464-0.21-1.819-0.466L94.004,86.884z"/>
		<path d="M102.218,80.968l-0.306,1.573h1.404l-0.22,1.106h-1.417l-0.427,2.096c-0.06,0.267-0.123,0.594-0.123,0.874
			c0,0.302,0.146,0.524,0.562,0.524c0.183,0,0.366-0.011,0.513-0.035l-0.134,1.119c-0.196,0.081-0.598,0.129-0.965,0.129
			c-1.049,0-1.49-0.548-1.49-1.187c0-0.35,0.037-0.675,0.134-1.119l0.489-2.399h-0.829l0.22-1.106h0.829l0.244-1.235L102.218,80.968
			z"/>
		<path d="M108.394,87.863c-0.61,0.315-1.514,0.489-2.282,0.489c-1.733,0-2.612-0.979-2.612-2.434c0-1.759,1.44-3.518,3.564-3.518
			c1.234,0,2.087,0.629,2.087,1.643c0,1.467-1.697,1.888-4.211,1.829c-0.024,0.21,0.049,0.57,0.17,0.78
			c0.269,0.407,0.745,0.594,1.342,0.594c0.732,0,1.343-0.175,1.807-0.396L108.394,87.863z M106.88,83.437
			c-1.012,0-1.647,0.815-1.794,1.397c1.66,0.011,2.648-0.14,2.648-0.804C107.735,83.658,107.38,83.437,106.88,83.437"/>
		<path d="M116.876,79.873l-1.257,6.29c-0.134,0.675-0.244,1.421-0.269,2.05h-1.391l0.134-1.06h-0.024
			c-0.598,0.839-1.391,1.2-2.233,1.2c-1.159,0-1.99-0.863-1.99-2.225c0-2.004,1.673-3.728,3.979-3.728
			c0.329,0,0.745,0.059,1.038,0.162l0.536-2.69L116.876,79.873L116.876,79.873z M114.643,83.728
			c-0.196-0.127-0.536-0.232-0.941-0.232c-1.294,0-2.295,1.06-2.295,2.422c0,0.723,0.317,1.292,1.074,1.292
			c0.708,0,1.587-0.723,1.843-2.004L114.643,83.728z"/>
		<path d="M122.392,80.362l-0.866,4.38c-0.06,0.28-0.097,0.618-0.097,0.979c0.013,0.885,0.573,1.456,1.55,1.456
			c1.148,0,1.966-0.723,2.306-2.434l0.879-4.38h1.477l-0.879,4.391c-0.5,2.516-1.783,3.599-3.979,3.599
			c-1.66,0-2.832-0.815-2.832-2.633c0-0.35,0.037-0.734,0.11-1.071l0.855-4.286h1.475V80.362z"/>
		<path d="M129.435,80.362h1.464l-0.708,3.623h0.037c0.269-0.302,0.549-0.571,0.805-0.828l2.819-2.795h1.916l-3.662,3.366
			l2.319,4.484h-1.636l-1.856-3.634l-1.038,0.863l-0.562,2.773h-1.464L129.435,80.362z"/>
		<path d="M140.639,80.362l-0.866,4.38c-0.06,0.28-0.097,0.618-0.097,0.979c0.013,0.885,0.573,1.456,1.55,1.456
			c1.148,0,1.966-0.723,2.306-2.434l0.879-4.38h1.477l-0.879,4.391c-0.5,2.516-1.783,3.599-3.979,3.599
			c-1.66,0-2.832-0.815-2.832-2.633c0-0.35,0.037-0.734,0.11-1.071l0.855-4.286h1.475V80.362z"/>
		<path d="M146.095,88.213l0.781-3.96c0.134-0.653,0.22-1.222,0.293-1.713h1.331l-0.146,1.095h0.024
			c0.586-0.828,1.417-1.235,2.319-1.235c0.866,0,1.647,0.466,1.647,1.689c0,0.221-0.049,0.64-0.097,0.909l-0.635,3.215h-1.49
			l0.61-3.064c0.037-0.21,0.073-0.466,0.073-0.675c0-0.536-0.207-0.92-0.855-0.92c-0.708,0-1.623,0.78-1.892,2.177l-0.489,2.481
			H146.095z"/>
		<path d="M153.332,88.213l1.122-5.673h1.49l-1.135,5.673H153.332z M154.674,80.968c0-0.524,0.427-0.839,0.891-0.839
			c0.463,0,0.805,0.291,0.805,0.745c0,0.501-0.403,0.828-0.915,0.828C155.016,81.702,154.674,81.411,154.674,80.968"/>
		<path d="M158.349,82.541l0.513,2.795c0.097,0.664,0.196,1.13,0.244,1.467h0.037c0.146-0.326,0.329-0.745,0.696-1.432l1.561-2.83
			h1.697l-3.527,5.673h-1.501l-1.234-5.673L158.349,82.541L158.349,82.541z"/>
		<path d="M167.893,87.863c-0.61,0.315-1.514,0.489-2.282,0.489c-1.733,0-2.612-0.979-2.612-2.434c0-1.759,1.44-3.518,3.564-3.518
			c1.232,0,2.087,0.629,2.087,1.643c0,1.467-1.697,1.888-4.211,1.829c-0.024,0.21,0.049,0.57,0.17,0.78
			c0.269,0.407,0.745,0.594,1.342,0.594c0.732,0,1.343-0.175,1.807-0.396L167.893,87.863z M166.379,83.437
			c-1.012,0-1.647,0.815-1.794,1.397c1.66,0.011,2.648-0.14,2.648-0.804C167.234,83.658,166.88,83.437,166.379,83.437"/>
		<path d="M169.223,88.213l0.672-3.39c0.159-0.839,0.244-1.77,0.306-2.282h1.307c-0.049,0.419-0.097,0.839-0.159,1.257h0.037
			c0.415-0.78,1.098-1.397,1.99-1.397c0.11,0,0.244,0.011,0.353,0.011l-0.293,1.375c-0.086-0.011-0.183-0.011-0.306-0.011
			c-1.111,0-1.757,1.014-2.002,2.317l-0.427,2.12H169.223z"/>
		<path d="M173.898,86.884c0.353,0.175,1.025,0.419,1.6,0.419c0.598,0,0.952-0.315,0.952-0.675c0-0.326-0.196-0.548-0.842-0.839
			c-0.756-0.326-1.318-0.815-1.318-1.503c0-1.13,1.074-1.888,2.526-1.888c0.683,0,1.245,0.151,1.526,0.315l-0.379,1.014
			c-0.256-0.116-0.696-0.28-1.257-0.28c-0.536,0-0.915,0.256-0.915,0.629c0,0.302,0.28,0.524,0.855,0.78
			c0.683,0.302,1.354,0.745,1.354,1.538c0,1.257-1.159,1.956-2.661,1.956c-0.756,0-1.464-0.21-1.819-0.466L173.898,86.884z"/>
		<path d="M178.986,88.213l1.124-5.673h1.49l-1.135,5.673H178.986z M180.33,80.968c0-0.524,0.427-0.839,0.891-0.839
			c0.463,0,0.805,0.291,0.805,0.745c0,0.501-0.403,0.828-0.915,0.828C180.672,81.702,180.33,81.411,180.33,80.968"/>
		<path d="M185.346,80.968l-0.306,1.573h1.404l-0.22,1.106h-1.417l-0.427,2.096c-0.06,0.267-0.123,0.594-0.123,0.874
			c0,0.302,0.146,0.524,0.562,0.524c0.183,0,0.366-0.011,0.512-0.035l-0.134,1.119c-0.196,0.081-0.598,0.129-0.965,0.129
			c-1.049,0-1.49-0.548-1.49-1.187c0-0.35,0.037-0.675,0.134-1.119l0.489-2.399h-0.829l0.22-1.106h0.829l0.244-1.235L185.346,80.968
			z"/>
		<g>
			<path d="M186.944,88.213l1.124-5.673h1.488l-1.135,5.673H186.944z M188.288,80.968c0-0.524,0.427-0.839,0.891-0.839
				c0.463,0,0.805,0.291,0.805,0.745c0,0.501-0.403,0.828-0.915,0.828C188.63,81.702,188.288,81.411,188.288,80.968"/>
			<path d="M196.426,86.884c0.353,0.175,1.025,0.419,1.6,0.419c0.598,0,0.952-0.315,0.952-0.675c0-0.326-0.196-0.548-0.842-0.839
				c-0.756-0.326-1.318-0.815-1.318-1.503c0-1.13,1.074-1.888,2.526-1.888c0.683,0,1.245,0.151,1.526,0.315l-0.379,1.014
				c-0.256-0.116-0.696-0.28-1.257-0.28c-0.536,0-0.915,0.256-0.915,0.629c0,0.302,0.28,0.524,0.855,0.78
				c0.683,0.302,1.354,0.745,1.354,1.538c0,1.257-1.159,1.956-2.661,1.956c-0.756,0-1.464-0.21-1.819-0.466L196.426,86.884z"/>
			<path d="M195.199,87.863c-0.61,0.315-1.514,0.489-2.282,0.489c-1.733,0-2.612-0.979-2.612-2.434c0-1.759,1.44-3.518,3.564-3.518
				c1.234,0,2.087,0.629,2.087,1.643c0,1.467-1.697,1.888-4.211,1.829c-0.024,0.21,0.049,0.57,0.17,0.78
				c0.269,0.407,0.745,0.594,1.343,0.594c0.732,0,1.343-0.175,1.807-0.396L195.199,87.863z M193.685,83.437
				c-1.012,0-1.647,0.815-1.794,1.397c1.66,0.011,2.648-0.14,2.648-0.804C194.54,83.658,194.186,83.437,193.685,83.437"/>
		</g>
		<g>
			<path d="M206.07,80.502c0.549-0.127,1.391-0.197,2.196-0.197c0.842,0,1.647,0.14,2.209,0.501c0.5,0.302,0.866,0.793,0.866,1.479
				c0,1.165-0.902,1.886-1.977,2.201l-0.013,0.035c0.549,0.197,0.805,0.758,0.891,1.444c0.123,0.99,0.196,1.91,0.342,2.247h-1.55
				c-0.049-0.175-0.159-0.909-0.256-1.864c-0.086-1.001-0.512-1.362-1.305-1.362h-0.829l-0.635,3.226h-1.477L206.07,80.502z
				 M206.862,83.927h0.952c1.171,0,1.977-0.618,1.977-1.421c0-0.804-0.732-1.084-1.574-1.084c-0.427,0-0.683,0.035-0.866,0.081
				L206.862,83.927z"/>
			<path d="M216.687,87.863c-0.61,0.315-1.514,0.489-2.282,0.489c-1.733,0-2.612-0.979-2.612-2.434c0-1.759,1.44-3.518,3.564-3.518
				c1.232,0,2.087,0.629,2.087,1.643c0,1.467-1.697,1.888-4.211,1.829c-0.024,0.21,0.049,0.57,0.17,0.78
				c0.269,0.407,0.745,0.594,1.342,0.594c0.732,0,1.343-0.175,1.807-0.396L216.687,87.863z M215.174,83.437
				c-1.012,0-1.647,0.815-1.794,1.397c1.66,0.011,2.648-0.14,2.648-0.804C216.028,83.658,215.675,83.437,215.174,83.437"/>
			<path d="M217.493,90.542l1.159-5.835c0.134-0.653,0.269-1.573,0.342-2.166h1.354l-0.134,0.955h0.024
				c0.549-0.699,1.343-1.095,2.173-1.095c1.391,0,2.099,1.049,2.099,2.247c0,2.026-1.561,3.704-3.686,3.704
				c-0.635,0-1.098-0.14-1.331-0.267h-0.024l-0.489,2.457L217.493,90.542L217.493,90.542z M219.715,86.932
				c0.256,0.21,0.622,0.326,1.098,0.326c1.098,0,2.136-1.119,2.136-2.539c0-0.536-0.28-1.176-1.074-1.176
				c-0.805,0-1.673,0.793-1.966,2.271L219.715,86.932z"/>
			<path d="M225.219,88.213l0.672-3.39c0.159-0.839,0.244-1.77,0.306-2.282h1.307c-0.049,0.419-0.097,0.839-0.159,1.257h0.037
				c0.415-0.78,1.098-1.397,1.99-1.397c0.11,0,0.244,0.011,0.353,0.011l-0.293,1.375c-0.086-0.011-0.183-0.011-0.306-0.011
				c-1.111,0-1.757,1.014-2.002,2.317l-0.427,2.12H225.219z"/>
			<path d="M234.74,87.863c-0.61,0.315-1.514,0.489-2.282,0.489c-1.733,0-2.612-0.979-2.612-2.434c0-1.759,1.44-3.518,3.564-3.518
				c1.234,0,2.087,0.629,2.087,1.643c0,1.467-1.697,1.888-4.211,1.829c-0.024,0.21,0.049,0.57,0.17,0.78
				c0.269,0.407,0.745,0.594,1.343,0.594c0.732,0,1.342-0.175,1.807-0.396L234.74,87.863z M233.226,83.437
				c-1.012,0-1.647,0.815-1.794,1.397c1.66,0.011,2.648-0.14,2.648-0.804C234.079,83.658,233.726,83.437,233.226,83.437"/>
			<path d="M236.215,86.884c0.353,0.175,1.025,0.419,1.6,0.419c0.598,0,0.952-0.315,0.952-0.675c0-0.326-0.196-0.548-0.842-0.839
				c-0.756-0.326-1.318-0.815-1.318-1.503c0-1.13,1.074-1.888,2.526-1.888c0.683,0,1.245,0.151,1.526,0.315l-0.379,1.014
				c-0.256-0.116-0.696-0.28-1.257-0.28c-0.536,0-0.915,0.256-0.915,0.629c0,0.302,0.28,0.524,0.855,0.78
				c0.683,0.302,1.354,0.745,1.354,1.538c0,1.257-1.159,1.956-2.661,1.956c-0.758,0-1.464-0.21-1.819-0.466L236.215,86.884z"/>
			<path d="M246.297,87.863c-0.61,0.315-1.514,0.489-2.282,0.489c-1.733,0-2.612-0.979-2.612-2.434c0-1.759,1.44-3.518,3.564-3.518
				c1.234,0,2.087,0.629,2.087,1.643c0,1.467-1.697,1.888-4.211,1.829c-0.024,0.21,0.049,0.57,0.17,0.78
				c0.269,0.407,0.745,0.594,1.343,0.594c0.732,0,1.343-0.175,1.807-0.396L246.297,87.863z M244.783,83.437
				c-1.012,0-1.647,0.815-1.794,1.397c1.66,0.011,2.648-0.14,2.648-0.804C245.638,83.658,245.284,83.437,244.783,83.437"/>
			<path d="M247.627,88.213l0.781-3.96c0.134-0.653,0.22-1.222,0.293-1.713h1.331l-0.146,1.095h0.024
				c0.586-0.828,1.417-1.235,2.319-1.235c0.866,0,1.647,0.466,1.647,1.689c0,0.221-0.049,0.64-0.097,0.909l-0.635,3.215h-1.49
				l0.61-3.064c0.037-0.21,0.073-0.466,0.073-0.675c0-0.536-0.207-0.92-0.855-0.92c-0.708,0-1.623,0.78-1.892,2.177l-0.489,2.481
				H247.627z"/>
			<path d="M257.989,80.968l-0.306,1.573h1.404l-0.22,1.106h-1.417l-0.427,2.096c-0.06,0.267-0.123,0.594-0.123,0.874
				c0,0.302,0.146,0.524,0.562,0.524c0.183,0,0.366-0.011,0.513-0.035l-0.134,1.119c-0.196,0.081-0.598,0.129-0.965,0.129
				c-1.049,0-1.49-0.548-1.49-1.187c0-0.35,0.037-0.675,0.134-1.119l0.489-2.399h-0.829l0.22-1.106h0.829l0.244-1.235
				L257.989,80.968z"/>
			<path d="M263.458,88.213c0.013-0.337,0.06-0.85,0.123-1.362h-0.024c-0.61,1.119-1.477,1.503-2.343,1.503
				c-1.148,0-1.94-0.839-1.94-2.026c0-2.004,1.587-3.925,4.468-3.925c0.683,0,1.453,0.129,1.953,0.267l-0.598,2.889
				c-0.17,0.885-0.269,1.969-0.244,2.656h-1.394V88.213z M264.018,83.566c-0.146-0.035-0.366-0.07-0.672-0.07
				c-1.367,0-2.502,1.222-2.502,2.609c0,0.583,0.269,1.106,0.965,1.106c0.732,0,1.636-0.758,1.94-2.317L264.018,83.566z"/>
			<path d="M269.461,80.968l-0.306,1.573h1.404l-0.22,1.106h-1.417l-0.427,2.096c-0.06,0.267-0.123,0.594-0.123,0.874
				c0,0.302,0.146,0.524,0.562,0.524c0.183,0,0.366-0.011,0.512-0.035l-0.134,1.119c-0.196,0.081-0.598,0.129-0.965,0.129
				c-1.049,0-1.49-0.548-1.49-1.187c0-0.35,0.037-0.675,0.134-1.119l0.489-2.399h-0.829l0.22-1.106h0.829l0.244-1.235
				L269.461,80.968z"/>
			<path d="M270.682,88.213l1.124-5.673h1.488l-1.135,5.673H270.682z M272.025,80.968c0-0.524,0.427-0.839,0.891-0.839
				c0.463,0,0.805,0.291,0.805,0.745c0,0.501-0.403,0.828-0.915,0.828C272.366,81.702,272.025,81.411,272.025,80.968"/>
			<path d="M275.699,82.541l0.512,2.795c0.097,0.664,0.196,1.13,0.244,1.467h0.037c0.146-0.326,0.329-0.745,0.696-1.432l1.563-2.83
				h1.697l-3.527,5.673h-1.501l-1.232-5.673L275.699,82.541L275.699,82.541z"/>
			<path d="M285.244,87.863c-0.61,0.315-1.514,0.489-2.282,0.489c-1.733,0-2.612-0.979-2.612-2.434c0-1.759,1.44-3.518,3.564-3.518
				c1.234,0,2.087,0.629,2.087,1.643c0,1.467-1.697,1.888-4.211,1.829c-0.024,0.21,0.049,0.57,0.17,0.78
				c0.269,0.407,0.745,0.594,1.343,0.594c0.732,0,1.342-0.175,1.807-0.396L285.244,87.863z M283.73,83.437
				c-1.012,0-1.647,0.815-1.794,1.397c1.66,0.011,2.648-0.14,2.648-0.804C284.583,83.658,284.23,83.437,283.73,83.437"/>
		</g>
	</g>
	<g>
		<path d="M273.507,41.082h-2.034v-1.114h5.286v1.114h-2.023v6.043h-1.229V41.082z"/>
		<path d="M277.902,39.968h1.38l2.066,4.55l2.066-4.55h1.38v7.158h-1.206v-5.061l-1.789,4.081h-0.941l-1.791-4.081v5.061h-1.165
			V39.968L277.902,39.968z"/>
	</g>
</g>
</svg>
